<?xml version="1.0" encoding="utf-8"?>
<!DOCTYPE svg PUBLIC "-//W3C//DTD SVG 1.1//EN" "http://www.w3.org/Graphics/SVG/1.1/DTD/svg11.dtd">
<svg version="1.1" xmlns="http://www.w3.org/2000/svg" width="120" height="18" viewBox="0 0 200 30" enable-background="new 0 0 200 30">
  <g fill="#536373" opacity="0.75">
   <g>
    <rect x="105" y="9" width="4" height="18"/>
    <path d="M134,3h-15c-2.21,0-4,1.79-4,4v16c0,2.21,1.79,4,4,4h15c2.21,0,4-1.79,4-4V7C138,4.79,136.21,3,134,3z
				 M134,22c0,0.55-0.45,1-1,1h-13c-0.55,0-1-0.45-1-1V8c0-0.55,0.45-1,1-1h13c0.55,0,1,0.45,1,1V22z"/>
    <polygon points="159,3 141,3 141,7 148,7 148,21 152,21 152,7 159,7"/>
   </g>
   <g>
    <path d="M70,3h4v24h-4V9l-8,11L54,9v18h-4V3h4l8,11L70,3z"/>
    <path d="M21,3H9C6.65,3,5,4.65,5,7v6c0,2.35,1.65,4.02,4,4.02C9,17,16.8,17,20,17c0.55,0,1,0.45,1,1v4
				c0,0.55-0.45,1-1,1H10c-0.55,0-1-0.45-1-1v-1H5v2c0,2.35,1.65,4,4,4h12c2.32,0,4-1.65,4-4v-6c0-2.35-1.92-4-4.24-4H10
				c-0.55,0-1-0.45-1-1V8c0-0.55,0.45-1,1-1h10c0.55,0,1,0.45,1,1v1h4V7C25,4.65,23.32,3,21,3z"/>
    <polygon points="26,3 35,18 35,27 39,27 39,18 48,3 43,3 37,13.5 31,3"/>
   </g>
  </g>
  <g fill="#ff7f5f">
   <path d="M96.83,13.09C96.93,12.74,97,12.38,97,12V7c0-2.21-1.79-4-4-4H78v24h18c2.21,0,4-1.79,4-4v-6
			C100,15.08,98.64,13.47,96.83,13.09z M82,12V8c0-0.55,0.45-1,1-1h9c0.55,0,1,0.45,1,1v4c0,0.55-0.45,1-1,1h-9
			C82.45,13,82,12.55,82,12z M96,22c0,0.55-0.45,1-1,1H83c-0.55,0-1-0.45-1-1v-4c0-0.55,0.45-1,1-1h12c0.55,0,1,0.45,1,1V22z"/>
   <rect x="103" y="3" width="8" height="4"/>
   <rect x="128" y="9" width="4" height="8"/>
   <rect x="146" y="23" width="8" height="4"/>
   <path d="M184,2h-3l-13,24l1,2h27l1-2L184,2z M172,25l8-15l7,15H172z"/>
  </g>
</svg>
